HIERARCHY
ROOT Hips
{
	OFFSET	0.00	0.00	0.00
	CHANNELS 6 Xposition Yposition Zposition Zrotation Xrotation Yrotation
	JOINT LeftUpLeg
	{
		OFFSET	 0.126116	-0.014019	-0.065224
		CHANNELS 3 Zrotation Xrotation Yrotation
		JOINT LeftLeg
		{
			OFFSET	 0.000000	 0.000000	 0.569914
			CHANNELS 3 Zrotation Xrotation Yrotation
			JOINT LeftFoot
			{
				OFFSET	 0.000000	 0.000000	 0.544423
				CHANNELS 3 Zrotation Xrotation Yrotation
				JOINT LeftToeBase
				{
					OFFSET	 0.000000	 0.000000	 0.207117
					CHANNELS 3 Zrotation Xrotation Yrotation
					End Site
					{
						OFFSET	 0.000000	 0.000000	 0.207117
					}
				}
			}
		}
	}
	JOINT RightUpLeg
	{
		OFFSET	-0.124023	-0.008373	-0.065224
		CHANNELS 3 Zrotation Xrotation Yrotation
		JOINT RightLeg
		{
			OFFSET	 0.000000	 0.000000	 0.570047
			CHANNELS 3 Zrotation Xrotation Yrotation
			JOINT RightFoot
			{
				OFFSET	 0.000000	 0.000000	 0.544354
				CHANNELS 3 Zrotation Xrotation Yrotation
				JOINT RightToeBase
				{
					OFFSET	 0.000000	 0.000000	 0.207540
					CHANNELS 3 Zrotation Xrotation Yrotation
					End Site
					{
						OFFSET	 0.000000	 0.000000	 0.207540
					}
				}
			}
		}
	}
	JOINT Spine
	{
		OFFSET	 0.000184	-0.007763	 0.117403
		CHANNELS 3 Zrotation Xrotation Yrotation
		JOINT Spine1
		{
			OFFSET	 0.000000	 0.000000	 0.137269
			CHANNELS 3 Zrotation Xrotation Yrotation
			JOINT Spine2
			{
				OFFSET	 0.000000	 0.000000	 0.156879
				CHANNELS 3 Zrotation Xrotation Yrotation
				JOINT LeftShoulder
				{
					OFFSET	 0.080501	-0.002496	 0.160144
					CHANNELS 3 Zrotation Xrotation Yrotation
					JOINT LeftArm
					{
						OFFSET	 0.000000	 0.000000	 0.164363
						CHANNELS 3 Zrotation Xrotation Yrotation
						JOINT LeftForeArm
						{
							OFFSET	 0.000000	 0.000000	 0.364576
							CHANNELS 3 Zrotation Xrotation Yrotation
							JOINT LeftHand
							{
								OFFSET	 0.000000	 0.000000	 0.360812
								CHANNELS 3 Zrotation Xrotation Yrotation
								JOINT LeftHandIndex1
								{
									OFFSET	 0.000000	 0.000000	 0.086006
									CHANNELS 3 Zrotation Xrotation Yrotation
									JOINT LeftHandIndex2
									{
										OFFSET	 0.000000	 0.000000	 0.047236
										CHANNELS 3 Zrotation Xrotation Yrotation
										JOINT LeftHandIndex3
										{
											OFFSET	-0.004284	-0.000551	 0.038166
											CHANNELS 3 Zrotation Xrotation Yrotation
											End Site
											{
												OFFSET	-0.004284	-0.000551	 0.038166
											}
										}
									}
								}
							}
						}
					}
				}
				JOINT Neck
				{
					OFFSET	 0.000000	 0.000000	 0.176489
					CHANNELS 3 Zrotation Xrotation Yrotation
					JOINT Head
					{
						OFFSET	 0.000000	-0.001747	 0.077940
						CHANNELS 3 Zrotation Xrotation Yrotation
						End Site
						{
							OFFSET	 0.000000	-0.001747	 0.077940
						}
					}
				}
				JOINT RightShoulder
				{
					OFFSET	-0.080363	 0.000306	 0.159706
					CHANNELS 3 Zrotation Xrotation Yrotation
					JOINT RightArm
					{
						OFFSET	 0.000000	 0.000000	 0.164196
						CHANNELS 3 Zrotation Xrotation Yrotation
						JOINT RightForeArm
						{
							OFFSET	 0.000000	 0.000000	 0.365611
							CHANNELS 3 Zrotation Xrotation Yrotation
							JOINT RightHand
							{
								OFFSET	 0.000000	 0.000000	 0.360648
								CHANNELS 3 Zrotation Xrotation Yrotation
								JOINT RightHandIndex1
								{
									OFFSET	 0.000000	 0.000000	 0.069977
									CHANNELS 3 Zrotation Xrotation Yrotation
									JOINT RightHandIndex2
									{
										OFFSET	 0.000000	 0.000000	 0.052305
										CHANNELS 3 Zrotation Xrotation Yrotation
										JOINT RightHandIndex3
										{
											OFFSET	 0.009002	-0.000782	 0.042196
											CHANNELS 3 Zrotation Xrotation Yrotation
											End Site
											{
												OFFSET	 0.009002	-0.000782	 0.042196
											}
										}
									}
								}
							}
						}
					}
				}
			}
		}
	}
}
MOTION
Frames:    6
Frame Time: 0.03333334
-0.060144	-2.268420	 1.243780	 4.449197	-1.578286	-3.463722	 15.477630	-4.065764	-174.745800	 0.589678	-28.443870	 0.091338	 24.203620	 73.262780	-27.151340	-2.370691	 31.397800	-0.065020	-19.864240	-32.001430	-176.610500	 9.601419	-48.699300	 7.819535	 2.487119	 61.721520	 4.080549	 2.358244	 33.107450	 0.105717	 21.525570	 7.921289	 1.472092	 0.317939	 5.877961	 1.861332	-4.871868	-6.749166	-2.725396	-93.837170	 58.920180	 175.609500	 11.045720	 29.684900	-43.616150	 7.644129	-0.783679	-4.973933	 23.012790	-16.128330	-0.419705	-4.869297	 19.243520	-2.786477	-3.888037	 21.389520	 2.209359	-4.808252	 5.545583	 0.146965	-0.105683	-5.039588	 0.168949	-6.745254	 0.151236	 2.115116	 89.810710	 61.609090	-179.931800	-19.940880	 51.862240	 8.123891	-9.707799	-3.787905	 13.471910	-27.259850	-0.678872	 0.461344	 6.299976	 25.524730	-0.561975	 1.794930	 45.422350	-6.912220	 0.426077	 24.714000	 3.619368
-0.062003	-2.307724	 1.242045	 4.969943	-1.322047	-3.472374	 14.777890	-2.160756	-175.420000	 0.850193	-27.662420	 0.230967	 23.652610	 74.524620	-26.706630	-2.369765	 31.554490	-0.068552	-21.344610	-33.731980	-177.976800	 9.103600	-43.115000	 6.775601	 0.303380	 60.178560	 6.493559	 2.358773	 33.029210	 0.103900	 18.650890	 7.804373	 1.414497	 0.245720	 6.110857	 1.878667	-5.123552	-6.929097	-2.781589	-93.934160	 58.997680	 175.393000	 9.862042	 27.722530	-44.485360	 8.979837	-1.123070	-5.955754	 22.778540	-12.794760	-2.818114	-4.869068	 19.248370	-2.786524	-3.884145	 21.439310	 2.205410	-4.808270	 5.545386	 0.146975	-0.076648	-5.074230	 0.183774	-6.880825	 0.127546	 1.985621	 89.780260	 61.647830	 179.995600	-19.858740	 52.919800	 5.877110	-11.549640	-4.912866	 15.627080	-26.894960	 3.423197	 2.002531	 6.293849	 24.860170	-0.540632	 1.887301	 44.686060	-6.994722	 0.536307	 24.232140	 3.563187
-0.064249	-2.349336	 1.238699	 5.484256	-0.903943	-3.513160	 14.151770	-0.375631	-176.071500	 1.054335	-27.013120	 0.318682	 22.918670	 75.886960	-25.984990	-2.368869	 31.703260	-0.071928	-23.025880	-34.960080	-179.582500	 8.853642	-36.218470	 5.714012	-2.271488	 58.400230	 9.124907	 2.358974	 33.000020	 0.103224	 15.470550	 7.546001	 1.327867	 0.177337	 6.311008	 1.971715	-5.406807	-7.104417	-2.882883	-94.056000	 59.017950	 175.130300	 8.621560	 25.771710	-45.267960	 10.639290	-1.549636	-6.965063	 22.682050	-9.587735	-4.756872	-4.865883	 19.334530	-2.793129	-3.877588	 21.523180	 2.198745	-4.805858	 5.573765	 0.145315	-0.049576	-5.097218	 0.216091	-7.052910	 0.109475	 1.886253	 89.735340	 61.702550	 179.888300	-19.635680	 53.921030	 3.613346	-13.603530	-6.197246	 17.626680	-26.527380	 7.409109	 3.343554	 6.282433	 23.986820	-0.545512	 1.992174	 43.823530	-7.087962	 0.711376	 23.458280	 3.475531
-0.066592	-2.385820	 1.234893	 5.938272	-0.492153	-3.557178	 13.608420	 1.036377	-176.643500	 1.208313	-26.667300	 0.384023	 22.112830	 77.180020	-25.171770	-2.368088	 31.832420	-0.074855	-24.519120	-35.521440	 178.944900	 8.769129	-30.011570	 4.798353	-4.197867	 57.869460	 10.770870	 2.359047	 32.987920	 0.102948	 12.493040	 7.277790	 1.237984	 0.107890	 6.376902	 2.072702	-5.662158	-7.208913	-2.979600	-94.170600	 59.020110	 174.885500	 7.684781	 24.272120	-45.803540	 12.147910	-1.975805	-7.820613	 22.532280	-7.170177	-6.155216	-4.862239	 19.433360	-2.800814	-3.871037	 21.606780	 2.192093	-4.803061	 5.606840	 0.143376	-0.026227	-5.114247	 0.249525	-7.213806	 0.096165	 1.806664	 89.691740	 61.755390	 179.783700	-19.337070	 54.643200	 1.982636	-15.476430	-7.128330	 18.627290	-26.101010	 10.506390	 4.241537	 6.270716	 23.157050	-0.557222	 2.086074	 43.026270	-7.171048	 0.882209	 22.692910	 3.391889
-0.069283	-2.424668	 1.229729	 6.216812	-0.059906	-3.746572	 13.247920	 2.657329	-177.152000	 1.327275	-26.295470	 0.431763	 21.267770	 78.818400	-24.301420	-2.366763	 32.046480	-0.079732	-25.448440	-36.715240	 177.601100	 8.937602	-25.148930	 4.152836	-5.541368	 56.918270	 11.635780	 2.360219	 32.814910	 0.098932	 9.280329	 6.934044	 1.291871	 0.042984	 6.505074	 2.153043	-5.912284	-7.300020	-3.079780	-94.279980	 58.983880	 174.657600	 6.819183	 22.944770	-46.330300	 13.451260	-2.476206	-8.699542	 21.853650	-5.037572	-6.767894	-4.854009	 19.627900	-2.810465	-3.860526	 21.740490	 2.181419	-4.796715	 5.681535	 0.139000	-0.013635	-5.150054	 0.284853	-7.407328	 0.081583	 1.771590	 89.621220	 61.841880	 179.613800	-18.854370	 55.238930	 0.621799	-17.780070	-7.881054	 18.929860	-25.550790	 13.435580	 4.600728	 6.253407	 22.114370	-0.590054	 2.180793	 42.197140	-7.254452	 1.110277	 21.655570	 3.283201
-0.072347	-2.462280	 1.222948	 6.447713	 0.358434	-3.963158	 12.923640	 4.214231	-177.648700	 1.435614	-26.082640	 0.476167	 20.170000	 80.579220	-23.187940	-2.365349	 32.270690	-0.084858	-26.245620	-39.288170	 176.205600	 9.316608	-23.284240	 4.017350	-6.478674	 57.128110	 12.066890	 2.361553	 32.613520	 0.094275	 6.090268	 6.587390	 1.374920	-0.012788	 6.621759	 2.230535	-6.149436	-7.373191	-3.177523	-94.384030	 58.940840	 174.442500	 6.105692	 21.852050	-46.837610	 14.598010	-2.995121	-9.503213	 20.885570	-3.598257	-6.953601	-4.845052	 19.835730	-2.820197	-3.849533	 21.879890	 2.170250	-4.789842	 5.762410	 0.134251	-0.003882	-5.188530	 0.319193	-7.598555	 0.068335	 1.747221	 89.547910	 61.932430	 179.436000	-18.308050	 55.720050	-0.837878	-19.970930	-8.761775	 19.451100	-24.803750	 15.652890	 4.513111	 6.235041	 21.066090	-0.626249	 2.269878	 41.393510	-7.332513	 1.338663	 20.599170	 3.177860
